<?xml version="1.0" encoding="UTF-8"?>
<svg version="1.1" xmlns="http://www.w3.org/2000/svg" width="758" height="687">
<path d="M0 0 C74.04939567 -1.69514069 152.96896449 19.74492253 211.56738281 66.06640625 C212.85322266 67.06414062 212.85322266 67.06414062 214.16503906 68.08203125 C232.86328758 82.76319083 249.81331828 99.66446772 263.56738281 119.06640625 C264.03450684 119.71496582 264.50163086 120.36352539 264.98291016 121.03173828 C272.56738281 131.56826729 272.56738281 131.56826729 272.56738281 134.06640625 C273.09452881 134.23438721 273.6216748 134.40236816 274.16479492 134.57543945 C279.29530156 136.24390144 284.30798452 138.11261186 289.31347656 140.12329102 C340.76141916 160.77650029 395.38529565 171.17894637 450.56738281 175.06640625 C453.10646761 175.25229991 455.64552863 175.43851849 458.18457031 175.625 C464.97788045 176.11960324 471.77218506 176.59849825 478.56738281 177.06640625 C476.12332371 182.0854562 473.54136933 186.83506406 470.56738281 191.56640625 C461.53599962 206.39823248 454.1359293 222.05577296 447.75488281 238.19140625 C447.12573975 239.77731567 447.12573975 239.77731567 446.48388672 241.39526367 C442.33630103 252.16325258 439.08421276 263.01351214 435.56738281 274.06640625 C475.16738281 274.39640625 514.76738281 274.72640625 555.56738281 275.06640625 C548.80951389 287.4558326 548.80951389 287.4558326 545.42285156 293.15625 C545.05609818 293.77440079 544.68934479 294.39255157 544.31147766 295.0294342 C543.1281026 297.02221624 541.94165145 299.01314364 540.75488281 301.00390625 C539.91111143 302.42251332 539.06736182 303.84113335 538.22363281 305.25976562 C532.20774416 315.3638067 526.11818417 325.42144858 519.99731445 335.4621582 C513.66957718 345.85260567 507.45579131 356.30966162 501.27539062 366.78833008 C497.87858194 372.5407025 494.46989328 378.27423888 490.88769531 383.9140625 C490.35901855 384.75050293 489.8303418 385.58694336 489.28564453 386.44873047 C488.34458621 387.92619516 487.39149015 389.39610167 486.42333984 390.85595703 C484.79438117 393.41556224 483.57986165 395.37326354 483.52441406 398.453125 C485.13279379 402.48311016 487.026036 406.33157992 489.00488281 410.19140625 C489.67704834 411.51930176 489.67704834 411.51930176 490.36279297 412.87402344 C493.72952699 419.49915307 497.18976934 426.07361971 500.67456055 432.63720703 C504.60748285 440.07325737 508.35013312 447.60027756 512.09057617 455.13452148 C515.67668329 462.33858392 519.3650949 469.48019535 523.18261719 476.56445312 C526.25928321 482.3192533 528.84758198 488.08284443 531.56738281 494.06640625 C494.27738281 494.06640625 456.98738281 494.06640625 418.56738281 494.06640625 C423.74102329 528.7598346 423.74102329 528.7598346 430.56738281 563.06640625 C429.66012451 563.28143799 428.75286621 563.49646973 427.81811523 563.71801758 C383.8647432 574.19035526 341.59811414 588.05087569 300.56738281 607.06640625 C299.62862305 607.49663086 298.68986328 607.92685547 297.72265625 608.37011719 C257.3174881 626.91509046 218.19251943 650.71313417 184.91577148 680.34985352 C181.95999316 682.96922471 179.02530705 685.15310626 175.56738281 687.06640625 C174.82617188 686.35097656 174.08496094 685.63554688 173.32128906 684.8984375 C164.57300641 676.57434829 155.27401171 669.23522926 145.56738281 662.06640625 C144.8385791 661.52338867 144.10977539 660.98037109 143.35888672 660.42089844 C132.11114082 652.0540669 120.53979942 644.35575222 108.56738281 637.06640625 C107.52662598 636.4312207 107.52662598 636.4312207 106.46484375 635.78320312 C49.87181769 601.42995691 -12.83418173 577.32157784 -77.43261719 563.06640625 C-77.21347656 562.1125 -76.99433594 561.15859375 -76.76855469 560.17578125 C-74.22697269 548.76602053 -72.22150002 537.28206216 -70.30761719 525.75390625 C-70.17973816 524.98630981 -70.05185913 524.21871338 -69.92010498 523.42785645 C-69.54422778 521.1658413 -69.17131842 518.90336061 -68.79980469 516.640625 C-68.69156372 515.98561508 -68.58332275 515.33060516 -68.47180176 514.65574646 C-67.35724039 507.80424117 -66.41497371 500.94290188 -65.43261719 494.06640625 C-102.72261719 494.06640625 -140.01261719 494.06640625 -178.43261719 494.06640625 C-168.08375431 472.21880684 -168.08375431 472.21880684 -163.83105469 463.94921875 C-163.35096451 463.01027771 -162.87087433 462.07133667 -162.37623596 461.10394287 C-161.36870296 459.13454195 -160.35989649 457.16579202 -159.349823 455.19769287 C-157.77410057 452.1260709 -156.20362577 449.05180908 -154.6340332 445.97705078 C-149.97865444 436.8671466 -145.30121237 427.77177936 -140.49902344 418.73828125 C-139.78289666 417.38402781 -139.06690736 416.02970165 -138.35107422 414.67529297 C-137.06932633 412.25101442 -135.77033199 409.83916875 -134.45947266 407.43017578 C-133.90275879 406.37942871 -133.34604492 405.32868164 -132.77246094 404.24609375 C-132.29156006 403.35647949 -131.81065918 402.46686523 -131.31518555 401.55029297 C-130.23031942 398.49706256 -130.40943125 397.12411135 -131.43261719 394.06640625 C-132.80368696 391.35907395 -132.80368696 391.35907395 -134.58105469 388.578125 C-135.57975586 386.95487305 -135.57975586 386.95487305 -136.59863281 385.29882812 C-136.95739502 384.72318115 -137.31615723 384.14753418 -137.68579102 383.55444336 C-139.63499044 380.42596768 -141.5590987 377.28206606 -143.48730469 374.140625 C-143.89257385 373.48190399 -144.29784302 372.82318298 -144.71539307 372.14450073 C-148.79768577 365.49909259 -152.77606641 358.79366679 -156.74328613 352.07913208 C-163.12017591 341.28740952 -169.54374336 330.52603247 -176.05761719 319.81640625 C-176.73953125 318.69500244 -177.42144531 317.57359863 -178.12402344 316.41821289 C-181.4180129 311.00671437 -184.71785868 305.59883004 -188.02157593 300.19326782 C-189.61080185 297.59171173 -191.19775304 294.98877236 -192.78436279 292.38562012 C-193.90910432 290.5424382 -195.03725719 288.70137488 -196.16552734 286.86035156 C-196.84147949 285.75143555 -197.51743164 284.64251953 -198.21386719 283.5 C-198.81263672 282.52087646 -199.41140625 281.54175293 -200.02832031 280.53295898 C-201.43261719 278.06640625 -201.43261719 278.06640625 -202.43261719 275.06640625 C-162.83261719 274.73640625 -123.23261719 274.40640625 -82.43261719 274.06640625 C-98.61406958 225.49687908 -98.61406958 225.49687908 -124.13964844 181.0078125 C-125.43261719 179.06640625 -125.43261719 179.06640625 -125.43261719 177.06640625 C-124.5974633 177.00789238 -124.5974633 177.00789238 -123.74543762 176.94819641 C-78.36481834 173.75042539 -33.84713379 169.26016791 10.31738281 157.94140625 C11.58437012 157.6168042 12.85135742 157.29220215 14.15673828 156.95776367 C21.45294605 155.03279633 28.53121391 152.79467984 35.56738281 150.06640625 C-1.94441179 125.10057321 -42.83697413 107.44507578 -87.43261719 100.06640625 C-87.43261719 99.40640625 -87.43261719 98.74640625 -87.43261719 98.06640625 C-54.82912813 89.39271253 -21.61860748 88.03698957 11.94238281 89.81640625 C12.74529755 89.85897552 13.54821228 89.9015448 14.37545776 89.94540405 C40.07152604 91.35129397 65.30647868 95.25932711 90.56738281 100.06640625 C84.19902646 93.59609346 77.69946108 87.68648393 70.56738281 82.06640625 C69.08625 80.87724609 69.08625 80.87724609 67.57519531 79.6640625 C27.10651409 47.72307096 -23.24469969 28.82480259 -72.96777344 16.85546875 C-73.78117188 16.59507813 -74.59457031 16.3346875 -75.43261719 16.06640625 C-75.92761719 15.07640625 -75.92761719 15.07640625 -76.43261719 14.06640625 C-69.31591312 10.98883321 -62.22483257 8.77837044 -54.68261719 7.00390625 C-53.05549805 6.61875854 -53.05549805 6.61875854 -51.39550781 6.22583008 C-34.44630337 2.34019781 -17.35959165 0.47388689 0 0 Z " fill="#221E1F" transform="translate(202.4326171875,-0.06640625)"/>
<path d="M0 0 C74.04939567 -1.69514069 152.96896449 19.74492253 211.56738281 66.06640625 C212.85322266 67.06414062 212.85322266 67.06414062 214.16503906 68.08203125 C232.86328758 82.76319083 249.81331828 99.66446772 263.56738281 119.06640625 C264.03450684 119.71496582 264.50163086 120.36352539 264.98291016 121.03173828 C272.56738281 131.56826729 272.56738281 131.56826729 272.56738281 134.06640625 C273.09452881 134.23438721 273.6216748 134.40236816 274.16479492 134.57543945 C279.29530156 136.24390144 284.30798452 138.11261186 289.31347656 140.12329102 C340.76141916 160.77650029 395.38529565 171.17894637 450.56738281 175.06640625 C453.10646761 175.25229991 455.64552863 175.43851849 458.18457031 175.625 C464.97788045 176.11960324 471.77218506 176.59849825 478.56738281 177.06640625 C476.12332371 182.0854562 473.54136933 186.83506406 470.56738281 191.56640625 C461.53599962 206.39823248 454.1359293 222.05577296 447.75488281 238.19140625 C447.12573975 239.77731567 447.12573975 239.77731567 446.48388672 241.39526367 C442.33630103 252.16325258 439.08421276 263.01351214 435.56738281 274.06640625 C475.16738281 274.39640625 514.76738281 274.72640625 555.56738281 275.06640625 C548.80951389 287.4558326 548.80951389 287.4558326 545.42285156 293.15625 C545.05609818 293.77440079 544.68934479 294.39255157 544.31147766 295.0294342 C543.1281026 297.02221624 541.94165145 299.01314364 540.75488281 301.00390625 C539.91111143 302.42251332 539.06736182 303.84113335 538.22363281 305.25976562 C532.20774416 315.3638067 526.11818417 325.42144858 519.99731445 335.4621582 C513.66957718 345.85260567 507.45579131 356.30966162 501.27539062 366.78833008 C497.87858194 372.5407025 494.46989328 378.27423888 490.88769531 383.9140625 C490.35901855 384.75050293 489.8303418 385.58694336 489.28564453 386.44873047 C488.34458621 387.92619516 487.39149015 389.39610167 486.42333984 390.85595703 C484.79438117 393.41556224 483.57986165 395.37326354 483.52441406 398.453125 C485.13279379 402.48311016 487.026036 406.33157992 489.00488281 410.19140625 C489.67704834 411.51930176 489.67704834 411.51930176 490.36279297 412.87402344 C493.72952699 419.49915307 497.18976934 426.07361971 500.67456055 432.63720703 C504.60748285 440.07325737 508.35013312 447.60027756 512.09057617 455.13452148 C515.67668329 462.33858392 519.3650949 469.48019535 523.18261719 476.56445312 C526.25928321 482.3192533 528.84758198 488.08284443 531.56738281 494.06640625 C494.27738281 494.06640625 456.98738281 494.06640625 418.56738281 494.06640625 C423.74102329 528.7598346 423.74102329 528.7598346 430.56738281 563.06640625 C429.66012451 563.28143799 428.75286621 563.49646973 427.81811523 563.71801758 C383.8647432 574.19035526 341.59811414 588.05087569 300.56738281 607.06640625 C299.62862305 607.49663086 298.68986328 607.92685547 297.72265625 608.37011719 C257.3174881 626.91509046 218.19251943 650.71313417 184.91577148 680.34985352 C181.95999316 682.96922471 179.02530705 685.15310626 175.56738281 687.06640625 C174.82617188 686.35097656 174.08496094 685.63554688 173.32128906 684.8984375 C164.57300641 676.57434829 155.27401171 669.23522926 145.56738281 662.06640625 C144.8385791 661.52338867 144.10977539 660.98037109 143.35888672 660.42089844 C132.11114082 652.0540669 120.53979942 644.35575222 108.56738281 637.06640625 C107.52662598 636.4312207 107.52662598 636.4312207 106.46484375 635.78320312 C49.87181769 601.42995691 -12.83418173 577.32157784 -77.43261719 563.06640625 C-77.21347656 562.1125 -76.99433594 561.15859375 -76.76855469 560.17578125 C-74.22697269 548.76602053 -72.22150002 537.28206216 -70.30761719 525.75390625 C-70.17973816 524.98630981 -70.05185913 524.21871338 -69.92010498 523.42785645 C-69.54422778 521.1658413 -69.17131842 518.90336061 -68.79980469 516.640625 C-68.69156372 515.98561508 -68.58332275 515.33060516 -68.47180176 514.65574646 C-67.35724039 507.80424117 -66.41497371 500.94290188 -65.43261719 494.06640625 C-102.72261719 494.06640625 -140.01261719 494.06640625 -178.43261719 494.06640625 C-168.08375431 472.21880684 -168.08375431 472.21880684 -163.83105469 463.94921875 C-163.35096451 463.01027771 -162.87087433 462.07133667 -162.37623596 461.10394287 C-161.36870296 459.13454195 -160.35989649 457.16579202 -159.349823 455.19769287 C-157.77410057 452.1260709 -156.20362577 449.05180908 -154.6340332 445.97705078 C-149.97865444 436.8671466 -145.30121237 427.77177936 -140.49902344 418.73828125 C-139.78289666 417.38402781 -139.06690736 416.02970165 -138.35107422 414.67529297 C-137.06932633 412.25101442 -135.77033199 409.83916875 -134.45947266 407.43017578 C-133.90275879 406.37942871 -133.34604492 405.32868164 -132.77246094 404.24609375 C-132.29156006 403.35647949 -131.81065918 402.46686523 -131.31518555 401.55029297 C-130.23031942 398.49706256 -130.40943125 397.12411135 -131.43261719 394.06640625 C-132.80368696 391.35907395 -132.80368696 391.35907395 -134.58105469 388.578125 C-135.57975586 386.95487305 -135.57975586 386.95487305 -136.59863281 385.29882812 C-136.95739502 384.72318115 -137.31615723 384.14753418 -137.68579102 383.55444336 C-139.63499044 380.42596768 -141.5590987 377.28206606 -143.48730469 374.140625 C-143.89257385 373.48190399 -144.29784302 372.82318298 -144.71539307 372.14450073 C-148.79768577 365.49909259 -152.77606641 358.79366679 -156.74328613 352.07913208 C-163.12017591 341.28740952 -169.54374336 330.52603247 -176.05761719 319.81640625 C-176.73953125 318.69500244 -177.42144531 317.57359863 -178.12402344 316.41821289 C-181.4180129 311.00671437 -184.71785868 305.59883004 -188.02157593 300.19326782 C-189.61080185 297.59171173 -191.19775304 294.98877236 -192.78436279 292.38562012 C-193.90910432 290.5424382 -195.03725719 288.70137488 -196.16552734 286.86035156 C-196.84147949 285.75143555 -197.51743164 284.64251953 -198.21386719 283.5 C-198.81263672 282.52087646 -199.41140625 281.54175293 -200.02832031 280.53295898 C-201.43261719 278.06640625 -201.43261719 278.06640625 -202.43261719 275.06640625 C-162.83261719 274.73640625 -123.23261719 274.40640625 -82.43261719 274.06640625 C-98.61406958 225.49687908 -98.61406958 225.49687908 -124.13964844 181.0078125 C-125.43261719 179.06640625 -125.43261719 179.06640625 -125.43261719 177.06640625 C-124.5974633 177.00789238 -124.5974633 177.00789238 -123.74543762 176.94819641 C-78.36481834 173.75042539 -33.84713379 169.26016791 10.31738281 157.94140625 C11.58437012 157.6168042 12.85135742 157.29220215 14.15673828 156.95776367 C21.45294605 155.03279633 28.53121391 152.79467984 35.56738281 150.06640625 C-1.94441179 125.10057321 -42.83697413 107.44507578 -87.43261719 100.06640625 C-87.43261719 99.40640625 -87.43261719 98.74640625 -87.43261719 98.06640625 C-54.82912813 89.39271253 -21.61860748 88.03698957 11.94238281 89.81640625 C12.74529755 89.85897552 13.54821228 89.9015448 14.37545776 89.94540405 C40.07152604 91.35129397 65.30647868 95.25932711 90.56738281 100.06640625 C84.19902646 93.59609346 77.69946108 87.68648393 70.56738281 82.06640625 C69.08625 80.87724609 69.08625 80.87724609 67.57519531 79.6640625 C27.10651409 47.72307096 -23.24469969 28.82480259 -72.96777344 16.85546875 C-73.78117188 16.59507813 -74.59457031 16.3346875 -75.43261719 16.06640625 C-75.92761719 15.07640625 -75.92761719 15.07640625 -76.43261719 14.06640625 C-69.31591312 10.98883321 -62.22483257 8.77837044 -54.68261719 7.00390625 C-53.05549805 6.61875854 -53.05549805 6.61875854 -51.39550781 6.22583008 C-34.44630337 2.34019781 -17.35959165 0.47388689 0 0 Z M64.87988281 183.62890625 C53.71286933 187.99958316 42.14783849 191.00670709 30.56738281 194.06640625 C29.83003906 194.26476074 29.09269531 194.46311523 28.33300781 194.66748047 C23.4414947 195.96984584 18.52625901 197.0596968 13.56738281 198.06640625 C11.90642578 198.40454346 11.90642578 198.40454346 10.21191406 198.74951172 C-13.85676857 203.54142431 -37.98877623 206.06151457 -62.43261719 208.06640625 C-61.16284615 212.00480182 -59.71866069 215.65774195 -57.87011719 219.36401367 C-44.61312922 246.07542034 -37.86373111 275.12639362 -31.43261719 304.06640625 C-69.71261719 304.06640625 -107.99261719 304.06640625 -147.43261719 304.06640625 C-145.78689873 309.00356162 -143.88590466 313.22756052 -141.43261719 317.75390625 C-136.81956007 326.39156673 -132.31802737 335.0830862 -127.84793091 343.79525757 C-125.90243465 347.58695004 -123.95457826 351.37742969 -122.00683594 355.16796875 C-121.62252914 355.91594223 -121.23822235 356.66391571 -120.8422699 357.43455505 C-117.06982808 364.77532479 -113.28762154 372.11098228 -109.49511719 379.44140625 C-108.92245117 380.55128906 -108.34978516 381.66117188 -107.75976562 382.8046875 C-107.2302832 383.82691406 -106.70080078 384.84914063 -106.15527344 385.90234375 C-105.69902588 386.7845459 -105.24277832 387.66674805 -104.77270508 388.57568359 C-103.47169065 391.13180671 -103.47169065 391.13180671 -101.63745117 393.51416016 C-100.43261719 396.06640625 -100.43261719 396.06640625 -101.07446289 399.04833984 C-102.35021147 401.88328571 -103.67266005 404.62747716 -105.16308594 407.35546875 C-105.98534668 408.87043945 -105.98534668 408.87043945 -106.82421875 410.41601562 C-107.71318848 412.03733398 -107.71318848 412.03733398 -108.62011719 413.69140625 C-109.56422278 415.42777173 -110.50831331 417.16414555 -111.45162964 418.90093994 C-112.10787875 420.10874003 -112.7647276 421.31621443 -113.42214966 422.52337646 C-115.7480748 426.79587126 -118.0523103 431.07949217 -120.34277344 435.37109375 C-120.66206818 435.96923889 -120.98136292 436.56738403 -121.31033325 437.18365479 C-121.95048411 438.38314402 -122.59057036 439.58266774 -123.23059082 440.78222656 C-128.26542328 450.21793771 -133.33625139 459.62826537 -138.640625 468.91601562 C-140.72148729 472.27968908 -140.72148729 472.27968908 -141.43261719 476.06640625 C-103.15261719 476.06640625 -64.87261719 476.06640625 -25.43261719 476.06640625 C-31.411014 519.40978317 -31.411014 519.40978317 -34.88183594 536.74609375 C-35.35660541 539.60817922 -35.54798291 542.17676953 -35.43261719 545.06640625 C-33.92248047 545.50339844 -33.92248047 545.50339844 -32.38183594 545.94921875 C-24.44201775 548.25787211 -16.51778589 550.61725597 -8.62011719 553.06640625 C-7.88172607 553.29086426 -7.14333496 553.51532227 -6.38256836 553.74658203 C0.10920281 555.77887559 6.32143679 558.38184535 12.56738281 561.06640625 C13.52281982 561.4752002 14.47825684 561.88399414 15.46264648 562.30517578 C36.9254258 571.54398735 58.11814671 581.1661028 78.31005859 592.96630859 C79.2057959 593.48789551 80.1015332 594.00948242 81.02441406 594.546875 C82.19967651 595.24139771 82.19967651 595.24139771 83.39868164 595.94995117 C85.46750786 597.01499027 87.29420597 597.6126764 89.56738281 598.06640625 C90.23125 597.19757813 90.89511719 596.32875 91.57910156 595.43359375 C92.47096248 594.26948055 93.36289331 593.10542092 94.25488281 591.94140625 C94.68994141 591.37164063 95.125 590.801875 95.57324219 590.21484375 C112.54180472 568.09286592 136.81571853 553.85885839 164.56738281 550.06640625 C192.31397959 548.08618038 218.60051157 554.54324068 240.36425781 572.35546875 C242.83248345 574.53199499 245.20999495 576.770838 247.56738281 579.06640625 C248.61152344 580.03513672 248.61152344 580.03513672 249.67675781 581.0234375 C255.07770126 586.16270733 259.33629643 591.94483446 263.56738281 598.06640625 C269.25864664 596.50084824 273.90958727 593.674363 278.94238281 590.69140625 C313.65106845 570.5566512 350.57198781 556.5468943 388.56738281 544.06640625 C387.88967764 536.92443635 386.6425223 530.04521004 385.25488281 523.00390625 C382.45644635 507.44980589 380.52760762 491.74820473 378.56738281 476.06640625 C416.84738281 476.06640625 455.12738281 476.06640625 494.56738281 476.06640625 C493.20178795 472.65241911 491.85490932 469.55277779 490.16894531 466.3203125 C489.69602051 465.41240967 489.2230957 464.50450684 488.73583984 463.5690918 C488.22649902 462.59883057 487.7171582 461.62856934 487.19238281 460.62890625 C486.6585498 459.60901611 486.1247168 458.58912598 485.57470703 457.53833008 C480.55946687 447.98994285 475.391404 438.52792756 470.21044922 429.06884766 C467.40816365 423.94811839 464.61149587 418.82448064 461.83026123 413.69229126 C460.89774929 411.97432172 459.96039522 410.25898332 459.02294922 408.54370117 C458.45624512 407.49674072 457.88954102 406.44978027 457.30566406 405.37109375 C456.80075439 404.44280762 456.29584473 403.51452148 455.77563477 402.55810547 C453.83545561 398.5570005 453.83545561 398.5570005 453.56738281 396.06640625 C454.28564453 394.0246582 454.28564453 394.0246582 455.49707031 391.8046875 C455.95388184 390.95036133 456.41069336 390.09603516 456.88134766 389.21582031 C457.65406006 387.81154785 457.65406006 387.81154785 458.44238281 386.37890625 C459.55838332 384.29763428 460.67287795 382.21555438 461.78613281 380.1328125 C462.39457031 379.00117676 463.00300781 377.86954102 463.62988281 376.70361328 C466.78014965 370.81512713 469.81329705 364.86557599 472.86105347 358.9236145 C474.66705485 355.40422326 476.47876367 351.88777275 478.29003906 348.37109375 C478.64699356 347.677845 479.00394806 346.98459625 479.37171936 346.27033997 C483.03453393 339.15728976 486.70339049 332.04739647 490.37988281 324.94140625 C490.94819824 323.84022461 491.51651367 322.73904297 492.10205078 321.60449219 C494.31174864 317.33790541 496.52016461 313.09277007 498.95410156 308.94921875 C500.73016658 306.32611155 500.73016658 306.32611155 500.56738281 304.06640625 C462.28738281 304.06640625 424.00738281 304.06640625 384.56738281 304.06640625 C399.57590932 240.69707209 399.57590932 240.69707209 414.73217773 211.88110352 C415.70674587 210.0965496 415.70674587 210.0965496 415.56738281 208.06640625 C414.93687012 208.02676758 414.30635742 207.98712891 413.65673828 207.94628906 C377.31657359 205.58662276 342.25563832 199.62884219 307.19775391 189.79101562 C303.66875985 188.81885539 300.12360559 187.93315589 296.56738281 187.06640625 C298.1820644 194.21014904 299.85830734 201.33508657 301.62988281 208.44140625 C301.79198242 209.09431641 301.95408203 209.74722656 302.12109375 210.41992188 C302.59367489 212.30449496 303.08039857 214.18550354 303.56738281 216.06640625 C303.8290625 217.278125 304.09074219 218.48984375 304.36035156 219.73828125 C305.82386478 223.77359926 307.47402345 225.28638558 310.81738281 227.94140625 C311.34388428 228.36067383 311.87038574 228.77994141 312.4128418 229.21191406 C321.79079196 236.52740222 332.03090506 242.58313722 342.56738281 248.06640625 C341.35312548 251.70917825 339.96246791 252.18949778 336.65478516 253.87036133 C335.96594238 254.20318115 335.27709961 254.53600098 334.56738281 254.87890625 C333.85404785 255.22783936 333.14071289 255.57677246 332.40576172 255.9362793 C319.82253547 261.94222215 304.54705476 268.52053576 290.42285156 267.97265625 C286.1844022 267.84482458 282.6838127 267.90443808 278.56738281 269.06640625 C275.25221316 272.79468116 273.43485624 276.7508619 271.43408203 281.27880859 C269.27629917 285.72931173 265.78775497 289.36051997 262.56738281 293.06640625 C261.89191406 293.87464844 261.21644531 294.68289063 260.52050781 295.515625 C252.48192621 304.85974267 243.3371423 312.65688419 232.81738281 319.06640625 C232.22812012 319.42806885 231.63885742 319.78973145 231.03173828 320.16235352 C229.23971124 321.20940009 227.4327512 322.15652286 225.56738281 323.06640625 C224.85219482 323.41662842 224.13700684 323.76685059 223.40014648 324.12768555 C220.26012647 325.43998806 217.8523441 326.40233399 214.48486328 325.52197266 C212.31808062 324.45244079 210.37734541 323.23836274 208.37988281 321.87890625 C207.6501123 321.41492432 206.9203418 320.95094238 206.16845703 320.47290039 C203.94193973 319.03963132 201.75225283 317.56223642 199.56738281 316.06640625 C198.91979004 315.62973633 198.27219727 315.19306641 197.60498047 314.74316406 C178.85037119 302.02367296 161.10126623 286.70765253 146.93066406 268.98828125 C144.9106123 266.4907627 142.83774786 264.05382025 140.73144531 261.62915039 C131.23651544 250.65063772 122.9348971 238.75191498 114.46508789 226.97998047 C105.54880288 214.59573751 96.56429788 202.59900078 85.99267578 191.55908203 C84.63194615 190.13402191 83.28864411 188.69238151 81.94628906 187.25 C81.16125 186.42628906 80.37621094 185.60257813 79.56738281 184.75390625 C78.88675781 184.03589844 78.20613281 183.31789062 77.50488281 182.578125 C73.34206587 179.33012065 69.21177521 181.8657662 64.87988281 183.62890625 Z " fill="#E1E2E3" transform="translate(202.4326171875,-0.06640625)"/>
<path d="M0 0 C10.90038111 -0.15584993 21.64273658 0.21170411 32.5 1.1875 C33.23168396 1.25180206 33.96336792 1.31610413 34.71722412 1.38235474 C47.20225689 2.50201651 59.33394519 4.43971903 71.52685547 7.40332031 C73.77393992 7.94545994 76.02497689 8.44570676 78.28515625 8.9296875 C117.93419368 17.69338928 153.30429686 40.74750808 183.21923828 67.42529297 C186.19321265 70.05514417 189.2250921 72.61661747 192.25 75.1875 C196.46555921 78.78250358 200.60777719 82.43762712 204.6875 86.1875 C209.95803062 91.01176671 215.41035933 95.55125859 221 100 C221.96164062 100.77988281 222.92328125 101.55976563 223.9140625 102.36328125 C246.16760703 120.02527165 270.52315789 132.02881739 298 139 C292.75672912 144.24327088 281.9555646 143.27155846 274.9909668 143.3293457 C273.81832275 143.32378662 272.64567871 143.31822754 271.4375 143.3125 C270.20749268 143.30758545 268.97748535 143.3026709 267.71020508 143.29760742 C252.18024201 143.0991707 238.52063214 140.41846598 224 135 C224.24363281 136.84851563 224.24363281 136.84851563 224.4921875 138.734375 C225.1393761 144.57508064 225.14668963 150.37933901 225.125 156.25 C225.12886719 157.3121875 225.13273438 158.374375 225.13671875 159.46875 C225.13478516 161.00789063 225.13478516 161.00789063 225.1328125 162.578125 C225.13168457 163.50012695 225.13055664 164.42212891 225.12939453 165.37207031 C224.9996893 168.00631004 224.58436106 170.43159679 224 173 C217.83381819 173.40214229 212.82254243 171.96818336 207 170 C206.690625 171.155 206.38125 172.31 206.0625 173.5 C202.62837054 183.80238839 196.57600324 194.22974027 189 202 C184.25221001 201.50210442 181.10426437 199.27413971 177.375 196.5 C176.45521362 195.82831787 176.45521362 195.82831787 175.5168457 195.14306641 C169.84406787 190.963435 164.3644793 186.56851328 159 182 C158.19691406 181.32066406 157.39382813 180.64132812 156.56640625 179.94140625 C152.26823797 176.22309204 148.38138612 172.3686558 144.71875 168.0234375 C143.60344742 166.71042219 142.45862743 165.42171566 141.28125 164.1640625 C128.34886243 150.30010464 118.11704412 133.95527987 108 118 C106.80867192 116.12495033 105.61726395 114.24995142 104.42578125 112.375 C103.82862305 111.43503174 103.23146484 110.49506348 102.61621094 109.52661133 C102.02098633 108.58970459 101.42576172 107.65279785 100.8125 106.6875 C100.2237207 105.76026123 99.63494141 104.83302246 99.02832031 103.87768555 C94.12989462 96.17535708 89.16075394 88.52941318 84 81 C83.41387939 80.14365967 83.41387939 80.14365967 82.81591797 79.27001953 C72.6822416 64.55610366 61.33157939 50.9161876 49 38 C48.36707031 37.32582031 47.73414063 36.65164062 47.08203125 35.95703125 C34.95323048 23.36727843 19.83697393 13.09634946 4.92700195 4.08422852 C3.27049429 3.07914947 1.63297749 2.04287393 0 1 C0 0.67 0 0.34 0 0 Z " fill="#EC1D24" transform="translate(233,110)"/>
<path d="M0 0 C0.65274902 0.12866455 1.30549805 0.2573291 1.97802734 0.38989258 C20.65988183 4.08420062 39.20170961 8.11107609 57 15 C58.55025879 15.59337158 58.55025879 15.59337158 60.13183594 16.19873047 C95.5815972 29.88516111 129.26474757 47.64674468 157 74 C158.34798324 75.17380563 159.70178771 76.34097432 161.0625 77.5 C169.58783808 84.94662183 177.00678369 93.11705054 184 102 C184.77988281 102.95132813 185.55976563 103.90265625 186.36328125 104.8828125 C203.8839304 126.73472261 220.14150766 155.81999979 224 184 C223.67 184.99 223.34 185.98 223 187 C222.32517578 186.29037109 222.32517578 186.29037109 221.63671875 185.56640625 C217.03812299 180.83879177 212.21966536 176.57511044 207.0703125 172.45703125 C204.95839484 170.76695974 202.87452125 169.06360099 200.8046875 167.32421875 C184.03802747 153.37320542 165.45837317 141.75652867 146.35644531 131.29345703 C144.1940651 130.10652268 142.04549117 128.89794545 139.8984375 127.68359375 C124.3134825 119.00412066 107.68601683 111.89804538 90.80859375 106.140625 C90.13250565 105.90669037 89.45641754 105.67275574 88.75984192 105.43173218 C85.49982706 104.30510561 82.23968934 103.21460822 78.94848633 102.18017578 C70.19625416 99.20700066 66.14504348 95.55687647 61 88 C59.98284699 86.78759823 58.94326196 85.59340048 57.875 84.42578125 C57.1639209 83.64847656 57.1639209 83.64847656 56.43847656 82.85546875 C55.9637793 82.34628906 55.48908203 81.83710937 55 81.3125 C54.48147461 80.755625 53.96294922 80.19875 53.42871094 79.625 C49.50169764 75.4511738 45.44317394 71.62391762 41 68 C39.8614983 67.03832942 38.72353109 66.0760259 37.5859375 65.11328125 C23.14775289 53.0120815 7.6445075 42.80467298 -9 34 C-9.6305127 33.66548828 -10.26102539 33.33097656 -10.91064453 32.98632812 C-38.25951078 18.60767746 -68.31290543 6.62030413 -99 2 C-99 1.34 -99 0.68 -99 0 C-96.77153591 -0.31747137 -94.54217353 -0.62863724 -92.3125 -0.9375 C-90.45044922 -1.19853516 -90.45044922 -1.19853516 -88.55078125 -1.46484375 C-60.02699945 -4.97754538 -28.21207057 -5.64584624 0 0 Z " fill="#231F20" transform="translate(258,13)"/>
<path d="M0 0 C0.66 0 1.32 0 2 0 C2.70177368 1.36596313 2.70177368 1.36596313 3.41772461 2.75952148 C8.26748733 12.19688699 13.12738092 21.62898448 17.99658203 31.05633545 C18.88410329 32.775503 19.77027792 34.4953656 20.65625 36.21533203 C21.9105344 38.64681459 23.17190525 41.07439159 24.4375 43.5 C24.78353271 44.17345459 25.12956543 44.84690918 25.48608398 45.54077148 C27.1092 48.86771658 27.1092 48.86771658 30 51 C30.24802872 50.18861572 30.24802872 50.18861572 30.50106812 49.36083984 C32.35655001 43.52303786 34.70338655 38.11140427 37.4140625 32.625 C38.03672501 31.34919067 38.03672501 31.34919067 38.67196655 30.04760742 C39.54169453 28.26823973 40.41409312 26.49017509 41.2890625 24.71337891 C42.63365791 21.98241521 43.96982596 19.24745147 45.3046875 16.51171875 C46.15316344 14.77840961 47.00210483 13.04532822 47.8515625 11.3125 C48.25259186 10.49281738 48.65362122 9.67313477 49.06680298 8.82861328 C51.88309403 3.11690597 51.88309403 3.11690597 53 2 C54.85369611 1.91262355 56.71067541 1.89301847 58.56640625 1.90234375 C59.69111328 1.90556641 60.81582031 1.90878906 61.97460938 1.91210938 C63.15861328 1.92048828 64.34261719 1.92886719 65.5625 1.9375 C66.75037109 1.94201172 67.93824219 1.94652344 69.16210938 1.95117188 C72.10812226 1.96300325 75.05403681 1.97948713 78 2 C77.38754291 7.17990878 74.98685981 11.425599 72.66381836 16.01293945 C72.21500809 16.91099808 71.76619781 17.8090567 71.30378723 18.73432922 C69.82147809 21.69686041 68.33071765 24.65505225 66.83984375 27.61328125 C65.80941847 29.66853561 64.77952336 31.72405586 63.75013733 33.77983093 C61.04121307 39.18623269 58.32510035 44.58899178 55.60748291 49.99102783 C52.83488898 55.50551155 50.06909755 61.02340437 47.30273438 66.54101562 C41.87514783 77.36402747 36.43996223 88.18320386 31 99 C30.34 99 29.68 99 29 99 C28.56768066 98.16041748 28.13536133 97.32083496 27.68994141 96.45581055 C23.83654438 88.97407216 19.97794281 81.4950463 16.11195374 74.01980591 C14.50859802 70.91953683 12.90661969 67.81860545 11.30908203 64.71533203 C9.94051423 62.05743637 8.56529324 59.40312147 7.1875 56.75 C6.79836426 55.99033936 6.40922852 55.23067871 6.00830078 54.44799805 C4.29911296 51.17390449 2.69470425 48.51880722 0 46 C-0.41185547 47.31834839 -0.41185547 47.31834839 -0.83203125 48.66333008 C-1.91381456 51.75378421 -3.16630553 54.49306305 -4.6875 57.38671875 C-5.21682129 58.39903564 -5.74614258 59.41135254 -6.29150391 60.4543457 C-6.85530762 61.52128662 -7.41911133 62.58822754 -8 63.6875 C-8.5779834 64.78860107 -9.1559668 65.88970215 -9.75146484 67.02416992 C-10.93117408 69.27062368 -12.11264786 71.5161517 -13.29589844 73.76074219 C-14.86560421 76.74453247 -16.42377715 79.73394083 -17.9765625 82.7265625 C-18.8592621 84.42193378 -19.74206771 86.11724988 -20.625 87.8125 C-21.02589844 88.58746826 -21.42679687 89.36243652 -21.83984375 90.16088867 C-22.21496094 90.87736572 -22.59007812 91.59384277 -22.9765625 92.33203125 C-23.29705566 92.94796143 -23.61754883 93.5638916 -23.94775391 94.19848633 C-25.15165557 96.25964419 -26.53808509 98.11530949 -28 100 C-34.33041448 88.14535986 -40.41816745 76.20492251 -46.24639893 64.09579468 C-49.80339809 56.71723144 -53.4032795 49.35926424 -57 42 C-57.30822693 41.36878235 -57.61645386 40.7375647 -57.934021 40.08721924 C-64.80466719 26.04286051 -71.30332705 14.80214453 -84.15234375 5.375 C-86 4 -86 4 -88 2 C-75.46 2 -62.92 2 -50 2 C-42.29563835 17.98245237 -34.60832988 33.97161105 -27 50 C-24.80984285 47.21687454 -23.08039075 44.43229412 -21.46875 41.28125 C-20.99284424 40.35795898 -20.51693848 39.43466797 -20.02661133 38.48339844 C-19.52282959 37.49887695 -19.01904785 36.51435547 -18.5 35.5 C-13.93743295 26.65488158 -9.25065285 17.89428139 -4.390625 9.20898438 C-3.74287109 8.04592773 -3.74287109 8.04592773 -3.08203125 6.859375 C-2.70280518 6.18358398 -2.3235791 5.50779297 -1.93286133 4.81152344 C-0.86609815 2.85360681 -0.86609815 2.85360681 0 0 Z " fill="#FBFBFB" transform="translate(408,353)"/>
<path d="M0 0 C12.21 0 24.42 0 37 0 C37 20.46 37 40.92 37 62 C38.65 60.35 40.3 58.7 42 57 C42.72960937 56.28199219 43.45921875 55.56398438 44.2109375 54.82421875 C47.75194596 51.32795227 51.23196189 47.81694378 54.5 44.0625 C55.03423584 43.45994385 55.56847168 42.8573877 56.11889648 42.23657227 C58.05675347 40.0019358 58.05675347 40.0019358 59.78100586 37.43774414 C62.91907125 33.26811219 65.24245935 30.41256531 70.44775391 29.19067383 C74.36328742 29.01720724 78.15158642 29.12442397 82.0625 29.375 C83.41845408 29.42526256 84.774589 29.47087215 86.13085938 29.51171875 C89.42525505 29.62895703 92.71024455 29.79277633 96 30 C89.7718581 37.26995857 83.50745392 44.47769046 77 51.5 C70.29038294 58.74874576 63.81061672 65.99709931 58 74 C63.64359864 80.64237985 69.28452256 87.27324105 75.1875 93.6875 C79.185087 98.04155973 82.92063333 102.55225142 86.625 107.15625 C89.73626806 110.88158413 93.02239671 114.42845194 96.37084961 117.94116211 C98.7770288 120.5011969 100.51893182 122.82821088 102 126 C73.99519298 128.25372018 73.99519298 128.25372018 67.58203125 123.38671875 C64.4837999 120.28477027 62.25851814 116.74107708 60 113 C58.86743077 111.65796636 57.70485291 110.34003545 56.5 109.0625 C54.32605393 106.55492854 52.17145052 104.03095649 50.015625 101.5078125 C49.2102832 100.56603149 49.2102832 100.56603149 48.38867188 99.60522461 C47.31562597 98.34944755 46.2439572 97.09249212 45.17382812 95.83422852 C44.67818359 95.25342529 44.18253906 94.67262207 43.671875 94.07421875 C43.2294043 93.55432373 42.78693359 93.03442871 42.33105469 92.4987793 C40.94881591 90.94236627 39.47190447 89.47190447 38 88 C37.67 100.54 37.34 113.08 37 126 C28.75 126 20.5 126 12 126 C11.970271 121.19296509 11.970271 121.19296509 11.93994141 116.28881836 C11.87300805 105.69563591 11.79536876 95.10255135 11.71247292 84.50948238 C11.66254611 78.0874796 11.61621554 71.66549297 11.578125 65.2434082 C11.54122684 59.04472622 11.49485417 52.84618063 11.44193649 46.64761543 C11.4234167 44.2837927 11.40829985 41.91994075 11.39665604 39.55607414 C11.37975254 36.24288874 11.35070687 32.93001407 11.31884766 29.61694336 C11.31668747 28.64158127 11.31452728 27.66621918 11.31230164 26.66130066 C11.21935764 19.08542186 10.44588319 13.1816112 5.5 7.125 C4.8915625 6.36445313 4.283125 5.60390625 3.65625 4.8203125 C2.11606159 2.90778255 2.11606159 2.90778255 0 2 C0 1.34 0 0.68 0 0 Z " fill="#F9F9F9" transform="translate(120,325)"/>
<path d="M0 0 C29.37 0 58.74 0 89 0 C84.50113379 7.87301587 84.50113379 7.87301587 82.0390625 11.35546875 C81.4925 12.13212891 80.9459375 12.90878906 80.3828125 13.70898438 C79.80273438 14.52689453 79.22265625 15.34480469 78.625 16.1875 C77.36710635 17.97259907 76.10929618 19.75775697 74.8515625 21.54296875 C74.2112207 22.44966309 73.57087891 23.35635742 72.91113281 24.29052734 C69.92880697 28.5186638 66.96478778 32.75955672 64 37 C60.40982733 42.13142377 56.81739679 47.26123337 53.21875 52.38671875 C52.59613281 53.27423828 51.97351563 54.16175781 51.33203125 55.07617188 C50.15319335 56.75645575 48.97356909 58.43618836 47.79296875 60.11523438 C44.11594301 65.35872574 40.529293 70.6559827 37 76 C38.26070312 75.93192139 39.52140625 75.86384277 40.8203125 75.79370117 C45.52301811 75.55740326 50.22520875 75.40883909 54.93212891 75.28588867 C56.96395211 75.22072675 58.99517046 75.13215921 61.02490234 75.01928711 C77.45004793 74.12915538 77.45004793 74.12915538 81.68652344 77.23736572 C84.77169814 80.70667331 86.34273257 84.68759892 88 89 C88.99878002 90.66739805 89.99845262 92.33426274 91 94 C91 94.66 91 95.32 91 96 C59.98 96 28.96 96 -3 96 C-1.19068732 91.47671831 0.95942281 87.76761878 3.625 83.75 C4.62059012 82.23099177 5.61532881 80.71142528 6.609375 79.19140625 C7.15142578 78.36398926 7.69347656 77.53657227 8.25195312 76.68408203 C11.49340972 71.70690692 14.67975089 66.6944095 17.875 61.6875 C22.93243763 53.77474739 28.00749857 45.87405894 33.125 38 C33.63272949 37.21842529 34.14045898 36.43685059 34.66357422 35.6315918 C38.07269435 30.39555036 41.53375761 25.19936359 45 20 C30.15 20 15.3 20 0 20 C0 13.4 0 6.8 0 0 Z " fill="#FCFCFC" transform="translate(556,355)"/>
<path d="M0 0 C0 9.57 0 19.14 0 29 C9.24 29 18.48 29 28 29 C26.75826576 32.1043356 25.7118012 34.69290179 24.08984375 37.515625 C23.73986328 38.12664062 23.38988281 38.73765625 23.02929688 39.3671875 C22.66900391 39.98851562 22.30871094 40.60984375 21.9375 41.25 C21.39125977 42.20519531 21.39125977 42.20519531 20.83398438 43.1796875 C18.14074248 47.85925752 18.14074248 47.85925752 17 49 C14.13732433 49.07325168 11.299281 49.09238205 8.4375 49.0625 C7.63119141 49.05798828 6.82488281 49.05347656 5.99414062 49.04882812 C3.99606244 49.03700518 1.99802217 49.01906914 0 49 C0.0922952 56.04776726 0.19960456 63.09519095 0.31738281 70.14257812 C0.35567905 72.54031174 0.39053076 74.93810293 0.421875 77.3359375 C0.46751105 80.78145942 0.5255087 84.22658472 0.5859375 87.671875 C0.59748871 88.74491882 0.60903992 89.81796265 0.62094116 90.92352295 C0.64081085 91.92425842 0.66068054 92.9249939 0.68115234 93.95605469 C0.69447601 94.83541687 0.70779968 95.71477905 0.7215271 96.62078857 C1.02212195 99.18900513 1.62214075 100.82143675 3 103 C6.16965142 104.58482571 9.63744541 104.37852823 13.125 104.5625 C15.72375 104.706875 18.3225 104.85125 21 105 C21 111.6 21 118.2 21 125 C17.04049095 125.13601367 13.08573598 125.23462036 9.125 125.3125 C8.01640625 125.35439453 6.9078125 125.39628906 5.765625 125.43945312 C-2.88177655 125.56662079 -9.67545867 124.01213135 -16.14599609 118.0090332 C-23.77947102 109.98129731 -24.43248047 102.77768526 -24.29296875 92.06640625 C-24.28872391 90.83333237 -24.28447906 89.60025848 -24.28010559 88.32981873 C-24.26336737 84.40715326 -24.22572265 80.48500914 -24.1875 76.5625 C-24.17075097 73.89649189 -24.15875969 71.23048868 -24.14648438 68.56445312 C-24.11347951 62.04276911 -24.06172939 55.52147283 -24 49 C-29.94 49 -35.88 49 -42 49 C-42 42.4 -42 35.8 -42 29 C-36.06 29 -30.12 29 -24 29 C-24.268125 26.525 -24.53625 24.05 -24.8125 21.5 C-24.94792008 18.52165699 -24.857549 15.86842874 -24 13 C-20.23637807 9.10522155 -15.90403204 7.18262413 -11 5 C-9.26136498 4.01655421 -7.53052419 3.01902415 -5.8125 2 C-2.26644737 0 -2.26644737 0 0 0 Z " fill="#FDFDFD" transform="translate(268,326)"/>
<path d="M0 0 C12.21 0 24.42 0 37 0 C37 31.68 37 63.36 37 96 C28.75 96 20.5 96 12 96 C11.98598145 92.473125 11.98598145 92.473125 11.97167969 88.875 C11.93784211 81.08768685 11.88225555 73.3006368 11.81609726 65.51353455 C11.7766663 60.79432834 11.74445638 56.0753075 11.72900391 51.35595703 C11.71380839 46.79752443 11.67931172 42.2396016 11.63169098 37.68139648 C11.61690697 35.94641563 11.6089607 34.21136199 11.60811615 32.47631836 C11.60573567 30.03705129 11.57857155 27.59918077 11.54589844 25.16015625 C11.5509288 24.45021011 11.55595917 23.74026398 11.56114197 23.00880432 C11.40886764 15.61316578 8.24256758 9.86443609 3.25 4.5625 C0 1.07352941 0 1.07352941 0 0 Z " fill="#F7F7F7" transform="translate(498,355)"/>
<path d="M0 0 C1.83890052 2.75835078 2.37632677 4.14986015 3.125 7.25 C6.31315438 18.24752242 12.56897703 28.3772092 20 37 C20.5259375 37.63421875 21.051875 38.2684375 21.59375 38.921875 C24.56331909 42.46717687 27.68202209 45.77960967 31 49 C30.44054687 48.855625 29.88109375 48.71125 29.3046875 48.5625 C19.51855167 46.29689942 9.00575476 45.03817906 -0.16015625 49.8515625 C-4.82080255 52.71076755 -4.82080255 52.71076755 -8 57 C-8.66 57 -9.32 57 -10 57 C-10.13535156 56.29617187 -10.27070313 55.59234375 -10.41015625 54.8671875 C-14.22036448 37.390424 -24.0267028 23.04417512 -37 11 C-38.00347018 10.00348227 -39.00446754 9.00444767 -40 8 C-39.44054687 8.144375 -38.88109375 8.28875 -38.3046875 8.4375 C-26.9863609 11.05781998 -16.48492135 11.37990347 -6 6 C-5.27554688 5.67 -4.55109375 5.34 -3.8046875 5 C-1.50730083 3.7269892 -0.95813046 2.39532615 0 0 Z " fill="#FEFBFA" transform="translate(411,189)"/>
<path d="M0 0 C4.81623391 3.47974937 7.70091716 7.54974507 8.84375 13.4140625 C9.20308553 20.05716286 7.64164308 24.64638007 3.30859375 29.66796875 C-2.22646431 34.92627391 -7.4456274 36.14726315 -14.90625 35.9765625 C-19.97032949 35.41546533 -23.80484516 33.73801084 -27.2578125 29.94921875 C-32.01109369 23.55734205 -32.42959917 17.50736965 -31.69140625 9.66796875 C-29.05515074 4.09127439 -24.71100249 0.38179365 -19.37890625 -2.64453125 C-12.20371743 -4.48004467 -6.48526273 -3.611917 0 0 Z " fill="#DADBDD" transform="translate(445.69140625,481.33203125)"/>
<path d="M0 0 C4.62 0 9.24 0 14 0 C14.84884766 1.82337891 14.84884766 1.82337891 15.71484375 3.68359375 C16.45561536 5.26828237 17.19650697 6.8529149 17.9375 8.4375 C18.31068359 9.23994141 18.68386719 10.04238281 19.06835938 10.86914062 C19.60493164 12.01479492 19.60493164 12.01479492 20.15234375 13.18359375 C20.48226318 13.89056396 20.81218262 14.59753418 21.15209961 15.32592773 C21.88534557 16.9891159 21.88534557 16.9891159 23 18 C25.97 12.06 28.94 6.12 32 0 C35.51275526 1.17091842 35.65017234 1.66338067 37.26171875 4.81640625 C37.85629883 5.96206055 37.85629883 5.96206055 38.46289062 7.13085938 C39.06907227 8.33452148 39.06907227 8.33452148 39.6875 9.5625 C40.10322266 10.36880859 40.51894531 11.17511719 40.94726562 12.00585938 C41.97363362 13.9996087 42.99071198 15.99756497 44 18 C44.23710693 17.49025635 44.47421387 16.9805127 44.71850586 16.45532227 C45.78925593 14.15665983 46.86333195 11.85956706 47.9375 9.5625 C48.31068359 8.76005859 48.68386719 7.95761719 49.06835938 7.13085938 C49.42607422 6.36708984 49.78378906 5.60332031 50.15234375 4.81640625 C50.6472229 3.75595093 50.6472229 3.75595093 51.15209961 2.67407227 C52 1 52 1 53 0 C54.68608966 -0.07205511 56.37500659 -0.08386068 58.0625 -0.0625 C58.98160156 -0.05347656 59.90070313 -0.04445313 60.84765625 -0.03515625 C61.55792969 -0.02355469 62.26820313 -0.01195312 63 0 C61.32056358 4.36823109 59.37198266 8.58339673 57.375 12.8125 C56.85583008 13.91452759 56.85583008 13.91452759 56.32617188 15.03881836 C52.6730949 22.75388656 48.85419457 30.38386552 45 38 C42.66672778 35.85456353 41.19518665 33.7965192 39.73828125 30.98828125 C39.38032471 30.30548096 39.02236816 29.62268066 38.65356445 28.91918945 C38.21101318 28.05898193 37.76846191 27.19877441 37.3125 26.3125 C35.889375 23.569375 34.46625 20.82625 33 18 C29.7 24.6 26.4 31.2 23 38 C19.97171567 34.97171567 18.84205941 32.86529879 17.109375 29.01171875 C16.56410156 27.83029297 16.01882813 26.64886719 15.45703125 25.43164062 C14.60301698 23.56547036 13.75441426 21.69738353 12.91748047 19.82348633 C9.52179473 12.25381165 6.7118139 6.94868512 0 2 C0 1.34 0 0.68 0 0 Z " fill="#D8DADB" transform="translate(345,479)"/>
<path d="M0 0 C2.12438339 -0.08078641 4.2496323 -0.13909141 6.375 -0.1875 C7.55835938 -0.22230469 8.74171875 -0.25710938 9.9609375 -0.29296875 C11.46527344 -0.14794922 11.46527344 -0.14794922 13 0 C13.66 0.99 14.32 1.98 15 3 C15.598125 2.505 16.19625 2.01 16.8125 1.5 C21.53940067 -0.72442384 25.87031645 -0.91732538 31 0 C35.29281885 2.35609418 38.16019369 5.4679712 40 10 C40.22705078 12.93261719 40.22705078 12.93261719 40.1953125 16.296875 C40.18886719 17.50214844 40.18242187 18.70742188 40.17578125 19.94921875 C40.15902344 21.20347656 40.14226562 22.45773437 40.125 23.75 C40.11597656 25.01972656 40.10695313 26.28945313 40.09765625 27.59765625 C40.07409005 30.73196093 40.04118832 33.86588541 40 37 C36.7 37 33.4 37 30 37 C29.98018066 36.22285645 29.96036133 35.44571289 29.93994141 34.64501953 C29.84492991 31.13799309 29.73515441 27.63158206 29.625 24.125 C29.5940625 22.90167969 29.563125 21.67835938 29.53125 20.41796875 C29.49257813 19.25136719 29.45390625 18.08476562 29.4140625 16.8828125 C29.3826416 15.80402832 29.3512207 14.72524414 29.31884766 13.61376953 C29.25323678 10.84238346 29.25323678 10.84238346 27 9 C22.91850789 8.460935 20.78151253 8.47823216 17.3203125 10.7890625 C13.86137333 15.57567528 14.21921211 20.04442018 14.1875 25.8125 C14.16236328 26.88693359 14.13722656 27.96136719 14.11132812 29.06835938 C14.05256705 31.71260771 14.01620624 34.35520488 14 37 C11.03 37 8.06 37 5 37 C4.9906543 36.12786865 4.98130859 35.2557373 4.97167969 34.35717773 C4.92742849 31.09321831 4.86571326 27.83052787 4.79248047 24.56713867 C4.76441256 23.16003296 4.74312797 21.75277373 4.72900391 20.34545898 C4.732169 9.4932278 4.732169 9.4932278 0 0 Z " fill="#D9DADC" transform="translate(461,479)"/>
<path d="M0 0 C4.62 0 9.24 0 14 0 C14.03738281 1.75828125 14.07476562 3.5165625 14.11328125 5.328125 C14.1789365 7.63543816 14.24538399 9.94272887 14.3125 12.25 C14.33505859 13.40886719 14.35761719 14.56773437 14.38085938 15.76171875 C14.41630859 16.87675781 14.45175781 17.99179687 14.48828125 19.140625 C14.51446533 20.16704102 14.54064941 21.19345703 14.56762695 22.25097656 C15.05667612 25.36034621 15.78606524 26.7837798 18 29 C22.08165827 29.51020728 23.52957297 29.31361802 27 27 C28.01587978 23.95236066 28.19804406 21.65281033 28.31640625 18.45703125 C28.35830078 17.38388672 28.40019531 16.31074219 28.44335938 15.20507812 C28.48267578 14.08552734 28.52199219 12.96597656 28.5625 11.8125 C28.60568359 10.68134766 28.64886719 9.55019531 28.69335938 8.38476562 C28.79949099 5.58996646 28.90154385 2.79507838 29 0 C32.3 0 35.6 0 39 0 C39.10869203 3.81327872 39.18765644 7.62340992 39.25 11.4375 C39.30027344 13.04141602 39.30027344 13.04141602 39.3515625 14.67773438 C39.43441412 21.45085404 38.92095761 27.27980144 35 33 C30.37965282 36.79039225 25.12735691 38.38963865 19.1875 38.26953125 C14.55484803 37.69872235 10.68949663 35.88829455 7.5559082 32.38598633 C3.72708232 26.69227423 3.31828553 21.9412478 3.375 15.1875 C3.375 13.32677736 3.36253553 11.46600128 3.3359375 9.60546875 C3.34439697 8.38573364 3.34439697 8.38573364 3.35302734 7.14135742 C2.9180098 4.5026722 1.94113907 3.75497172 0 2 C0 1.34 0 0.68 0 0 Z " fill="#D4D6D7" transform="translate(299,479)"/>
<path d="M0 0 C1.28648437 -0.00515625 2.57296875 -0.0103125 3.8984375 -0.015625 C7.49213815 0.24052976 10.28387947 0.94665267 13.625 2.25 C12.75 7 12.75 7 11.625 9.25 C10.84125 9.085 10.0575 8.92 9.25 8.75 C4.68533858 8.12039153 0.22427399 8.16819473 -4.375 8.25 C-5.035 9.57 -5.695 10.89 -6.375 12.25 C-5.68535156 12.42015625 -4.99570312 12.5903125 -4.28515625 12.765625 C12.12306737 16.99710105 12.12306737 16.99710105 15.625 22.25 C16.22644333 25.33818016 16.24872928 28.163896 15.625 31.25 C11.64190264 35.60361804 7.46588534 37.93352832 1.609375 38.5859375 C-5.66309734 38.67376929 -11.04066309 37.91638622 -17.375 34.25 C-16.21914715 30.33788267 -15.01965038 27.3754959 -12.375 24.25 C-11.75625 24.889375 -11.1375 25.52875 -10.5 26.1875 C-7.05102897 29.53503071 -4.96085719 29.3626155 -0.25 29.3125 C0.84570312 29.30347656 1.94140625 29.29445313 3.0703125 29.28515625 C3.91335938 29.27355469 4.75640625 29.26195312 5.625 29.25 C5.69241472 27.29460719 5.69241472 27.29460719 4.625 25.25 C2.16837341 24.21941519 -0.07468367 23.44641406 -2.625 22.75 C-7.62204048 21.35390969 -11.53533024 19.88758188 -15.375 16.25 C-16.82647903 13.34704195 -16.74739025 11.47738221 -16.375 8.25 C-11.58379332 1.32936813 -8.25622455 -0.03295898 0 0 Z " fill="#D8D9DB" transform="translate(274.375,478.75)"/>
<path d="M0 0 C2.97361628 1.78152067 5.42653612 3.85307225 7 7 C7.37464112 12.6196168 7.13609371 16.121632 4 21 C0.43067411 23.37955059 -1.58734981 23.52911482 -5.7734375 23.4609375 C-8.42346411 22.9123355 -9.28452505 22.18156354 -11 20.125 C-13.87015619 15.64038095 -14.44944839 13.39338068 -14 8 C-10.47504818 1.55784668 -7.46085198 -0.88518583 0 0 Z " fill="#272324" transform="translate(437,486)"/>
<path d="M0 0 C0.33 0 0.66 0 1 0 C1.20625 1.216875 1.4125 2.43375 1.625 3.6875 C2.78866557 8.50473321 5.00692215 10.22220672 9 13 C8.67 14.32 8.34 15.64 8 17 C3.65128026 16.49822465 1.04396078 13.97477985 -2 11 C-2 9.68 -2 8.36 -2 7 C-2.99 7.495 -2.99 7.495 -4 8 C-5.87379605 8.07033769 -7.75001102 8.0843022 -9.625 8.0625 C-10.62789063 8.05347656 -11.63078125 8.04445313 -12.6640625 8.03515625 C-13.43492187 8.02355469 -14.20578125 8.01195312 -15 8 C-15.38218767 6.34385343 -15.71395102 4.67542976 -16 3 C-13.57616482 0.57616482 -7.40570963 1.46645135 -4.125 1.28125 C-1.1350199 1.34864552 -1.1350199 1.34864552 0 0 Z " fill="#EB3734" transform="translate(427,600)"/>
<path d="M0 0 C0.66 0.33 1.32 0.66 2 1 C4.37123246 1.23029956 6.74741943 1.41119942 9.125 1.5625 C10.40632813 1.64628906 11.68765625 1.73007812 13.0078125 1.81640625 C14.48894531 1.90728516 14.48894531 1.90728516 16 2 C16.38218767 3.65614657 16.71395102 5.32457024 17 7 C16 8 16 8 13.56640625 8.1328125 C12.57511719 8.13023437 11.58382813 8.12765625 10.5625 8.125 C9.57378906 8.12757813 8.58507812 8.13015625 7.56640625 8.1328125 C5 8 5 8 3 7 C2.95875 7.721875 2.9175 8.44375 2.875 9.1875 C1.57926503 13.35236242 -0.38228195 14.58818797 -4 17 C-6.375 16.8125 -6.375 16.8125 -8 16 C-7.8125 14.25 -7.8125 14.25 -7 12 C-6.195625 11.4225 -5.39125 10.845 -4.5625 10.25 C-0.99178524 7.11473826 -0.84528514 4.61064619 0 0 Z " fill="#EB3734" transform="translate(330,600)"/>
<path d="M0 0 C0.66 0 1.32 0 2 0 C2 0.66 2 1.32 2 2 C6.62 2.99 11.24 3.98 16 5 C16 6.65 16 8.3 16 10 C15.24074219 9.9278125 14.48148437 9.855625 13.69921875 9.78125 C12.70535156 9.6884375 11.71148437 9.595625 10.6875 9.5 C9.70136719 9.4071875 8.71523438 9.314375 7.69921875 9.21875 C3.33364895 8.71036271 3.33364895 8.71036271 -0.3125 10.875 C-3.15643867 13.1236957 -5.53485288 14.0329822 -9 15 C-9.33 13.68 -9.66 12.36 -10 11 C-9.16855469 10.56300781 -9.16855469 10.56300781 -8.3203125 10.1171875 C-3.4210148 7.38113153 -3.4210148 7.38113153 -0.5 2.6875 C-0.335 1.800625 -0.17 0.91375 0 0 Z " fill="#EB3332" transform="translate(338,630)"/>
<path d="M0 0 C0.66 0 1.32 0 2 0 C2.2475 1.3303125 2.2475 1.3303125 2.5 2.6875 C4.56769081 7.25365053 7.67646142 8.72762856 12 11 C11.67 12.32 11.34 13.64 11 15 C6.99346695 14.3836103 4.19536099 12.41427274 1 10 C0.67 9.01 0.34 8.02 0 7 C-0.55171875 7.31710937 -1.1034375 7.63421875 -1.671875 7.9609375 C-4.28477989 9.12709975 -6.40579002 9.40045711 -9.25 9.625 C-10.14203125 9.69976563 -11.0340625 9.77453125 -11.953125 9.8515625 C-12.62859375 9.90054688 -13.3040625 9.94953125 -14 10 C-14.33 8.68 -14.66 7.36 -15 6 C-11.79989612 4.1866078 -8.86716157 3.47786026 -5.25 2.875 C-4.26515625 2.70742188 -3.2803125 2.53984375 -2.265625 2.3671875 C-1.51796875 2.24601563 -0.7703125 2.12484375 0 2 C0 1.34 0 0.68 0 0 Z " fill="#EB3231" transform="translate(418,630)"/>
<path d="M0 0 C0.54398437 0.3196875 1.08796875 0.639375 1.6484375 0.96875 C5.19830811 2.52550389 8.70638157 2.45074432 12.5390625 2.65625 C15 3 15 3 17 5 C17 5.99 17 6.98 17 8 C14.85423363 8.02685938 12.70837355 8.04633088 10.5625 8.0625 C9.36753906 8.07410156 8.17257812 8.08570313 6.94140625 8.09765625 C4 8 4 8 3 7 C2.62875 7.7425 2.2575 8.485 1.875 9.25 C-0.35890092 12.52638802 -2.52747535 14.11904915 -6 16 C-6.99 15.67 -7.98 15.34 -9 15 C-8.875 13.3125 -8.875 13.3125 -8 11 C-6.48809162 9.77760599 -4.97424203 8.55706042 -3.43359375 7.37109375 C-1.23900432 5.27218124 -0.67312416 2.89443387 0 0 Z " fill="#EC2B2C" transform="translate(335,615)"/>
<path d="M0 0 C5.28 0.66 10.56 1.32 16 2 C16.268125 3.4025 16.53625 4.805 16.8125 6.25 C17.6098227 9.91538999 18.61863116 12.07741097 21 15 C21 16.32 21 17.64 21 19 C17.58217544 18.74682781 16.72255923 17.71625376 14.25 15.1875 C12 12 12 12 12 8 C11.22914063 7.87882813 10.45828125 7.75765625 9.6640625 7.6328125 C8.66117187 7.46523438 7.65828125 7.29765625 6.625 7.125 C5.62726563 6.96257813 4.62953125 6.80015625 3.6015625 6.6328125 C1 6 1 6 -1 4 C-0.67 2.68 -0.34 1.36 0 0 Z " fill="#EC2D2D" transform="translate(426,572)"/>
<path d="M0 0 C5.28 0 10.56 0 16 0 C16.33 1.32 16.66 2.64 17 4 C15.12175109 5.87824891 11.96064724 5.39102397 9.4375 5.5625 C8.23996094 5.64628906 7.04242188 5.73007812 5.80859375 5.81640625 C4.88175781 5.87699219 3.95492188 5.93757812 3 6 C2.88785156 6.75667969 2.77570313 7.51335938 2.66015625 8.29296875 C1.70244744 12.22014155 -0.30926612 14.03329342 -3 17 C-4.32 16.67 -5.64 16.34 -7 16 C-6.57134743 12.28501103 -4.72524533 10.37161589 -2.15625 7.7578125 C-0.50052063 5.49890948 -0.50052063 5.49890948 0 0 Z " fill="#EC2B2B" transform="translate(324,587)"/>
<path d="M0 0 C1.20628008 2.33214148 2.1654738 4.49642139 3 7 C4.62882397 8.43948118 4.62882397 8.43948118 6.5625 9.6875 C7.20316406 10.12449219 7.84382813 10.56148437 8.50390625 11.01171875 C8.99761719 11.33785156 9.49132812 11.66398438 10 12 C9.67 13.32 9.34 14.64 9 16 C5.00584176 14.63057432 2.11667166 12.85694902 -1 10 C-1.33 9.01 -1.66 8.02 -2 7 C-2.33 7.33 -2.66 7.66 -3 8 C-5.18639453 8.07258946 -7.37500389 8.08373783 -9.5625 8.0625 C-11.35880859 8.04896484 -11.35880859 8.04896484 -13.19140625 8.03515625 C-14.11824219 8.02355469 -15.04507812 8.01195312 -16 8 C-15.67 6.35 -15.34 4.7 -15 3 C-13.75283203 2.92652344 -13.75283203 2.92652344 -12.48046875 2.8515625 C-11.39378906 2.77679687 -10.30710937 2.70203125 -9.1875 2.625 C-8.10855469 2.55539062 -7.02960938 2.48578125 -5.91796875 2.4140625 C-2.81373814 2.18804267 -2.81373814 2.18804267 0 0 Z " fill="#EC2A2B" transform="translate(422,615)"/>
<path d="M0 0 C5.28 0 10.56 0 16 0 C16.3403125 1.8253125 16.3403125 1.8253125 16.6875 3.6875 C17.72422955 8.00974748 19.82848602 9.91420262 23 13 C22.8125 15.3125 22.8125 15.3125 22 17 C18.58217544 16.74682781 17.72255923 15.71625376 15.25 13.1875 C13 10 13 10 13 6 C12.40832031 6.02320313 11.81664062 6.04640625 11.20703125 6.0703125 C6.66198041 6.17411464 3.14059941 6.13708357 -1 4 C-0.67 2.68 -0.34 1.36 0 0 Z " fill="#EC292A" transform="translate(418,587)"/>
<path d="M0 0 C-0.33 1.32 -0.66 2.64 -1 4 C-5.53701494 5.45184478 -9.18061476 6.23509196 -14 6 C-13.896875 6.86625 -13.79375 7.7325 -13.6875 8.625 C-14.11458943 13.23756587 -15.85042342 14.69294459 -19 18 C-20.32 17.67 -21.64 17.34 -23 17 C-22.04071346 14.3435142 -21.23728879 12.27379476 -19.375 10.125 C-17.40962817 7.08760717 -17.79623695 4.53189293 -18 1 C-17.39671875 0.93941406 -16.7934375 0.87882813 -16.171875 0.81640625 C-14.97304688 0.69072266 -14.97304688 0.69072266 -13.75 0.5625 C-12.96109375 0.48128906 -12.1721875 0.40007813 -11.359375 0.31640625 C-9.02042568 0.05282946 -9.02042568 0.05282946 -6.875 -0.5625 C-4.37703091 -1.14535945 -2.45920181 -0.61480045 0 0 Z " fill="#EC292A" transform="translate(333,573)"/>
<path d="M0 0 C0.99 0.495 0.99 0.495 2 1 C2 1.66 2 2.32 2 3 C3.03060547 3.30744141 3.03060547 3.30744141 4.08203125 3.62109375 C4.98308594 3.89050781 5.88414062 4.15992188 6.8125 4.4375 C7.70582031 4.70433594 8.59914063 4.97117187 9.51953125 5.24609375 C11.35473055 5.80387873 13.18033726 6.39344575 15 7 C14.67 8.65 14.34 10.3 14 12 C3.69776962 10.29418408 3.69776962 10.29418408 0 6 C-0.3125 2.75 -0.3125 2.75 0 0 Z " fill="#EB3030" transform="translate(340,645)"/>
<path d="M0 0 C0.3125 2.3125 0.3125 2.3125 0 5 C-2.1875 6.6875 -2.1875 6.6875 -5 8 C-6.2684375 8.61875 -6.2684375 8.61875 -7.5625 9.25 C-10.21219605 10.06529109 -11.43693665 9.94928272 -14 9 C-14 7.68 -14 6.36 -14 5 C-12.04350603 4.16235732 -10.08474444 3.33000941 -8.125 2.5 C-6.48917969 1.80390625 -6.48917969 1.80390625 -4.8203125 1.09375 C-2 0 -2 0 0 0 Z " fill="#EC2A2B" transform="translate(417,647)"/>
<path d="M0 0 C0.5 2.1875 0.5 2.1875 0 5 C-2.41959477 7.13759072 -5.00219739 8.79629341 -8 10 C-8.99 9.67 -9.98 9.34 -11 9 C-10.78125 7.171875 -10.78125 7.171875 -10 5 C-7.96875 3.515625 -7.96875 3.515625 -5.5 2.25 C-4.6853125 1.82203125 -3.870625 1.3940625 -3.03125 0.953125 C-1 0 -1 0 0 0 Z " fill="#EC292A" transform="translate(339,635)"/>
<path d="M0 0 C4.51478398 0.53115106 7.34666857 2.36620292 11 5 C10.67 6.32 10.34 7.64 10 9 C5.98720812 8.3826474 3.14509642 6.50178124 0 4 C0 2.68 0 1.36 0 0 Z " fill="#EC292A" transform="translate(419,636)"/>
</svg>
